<svg width="192" height="192" viewBox="0 0 192 192" fill="none" xmlns="http://www.w3.org/2000/svg">
   <path fill-rule="evenodd" clip-rule="evenodd"
      d="M96 192C149.019 192 192 149.019 192 96C192 42.9807 149.019 0 96 0C42.9807 0 0 42.9807 0 96C0 149.019 42.9807 192 96 192ZM70.9735 49.1336C78.6805 45.0136 87.2846 42.8578 96.0237 42.8571V35.2653C86.0332 35.2627 76.1963 37.7243 67.3845 42.432C58.5727 47.1398 51.0581 53.9483 45.5066 62.2544C39.9551 70.5605 36.538 80.1077 35.5582 90.05C34.5783 99.9924 36.0659 110.023 39.8892 119.253C43.7124 128.483 49.7533 136.627 57.4765 142.965C65.1998 149.302 74.3669 153.637 84.1657 155.584C93.9646 157.532 104.093 157.033 113.652 154.131C123.212 151.229 131.908 146.013 138.971 138.947C140.025 137.891 141.041 136.797 142.015 135.667L136.261 130.71C135.418 131.697 134.53 132.653 133.603 133.58C127.424 139.759 119.815 144.319 111.452 146.855C103.089 149.392 94.23 149.827 85.6588 148.121C77.0877 146.416 69.0693 142.624 62.3139 137.08C55.5585 131.536 50.2746 124.411 46.9302 116.337C43.5858 108.264 42.2841 99.4895 43.1405 90.7924C43.9968 82.0954 46.9848 73.7437 51.8397 66.4772C56.6945 59.2107 63.2665 53.2536 70.9735 49.1336ZM96.0237 42.8571C97.3283 42.8572 98.6326 42.9053 99.9336 43.0014L100.495 35.4323C99.0074 35.3217 97.5158 35.266 96.0237 35.2653V42.8571ZM107.67 44.1478C110.215 44.7199 112.714 45.4786 115.148 46.4177L117.881 39.3345C115.102 38.2565 112.24 37.391 109.332 36.7381L107.67 44.1478ZM122.216 49.7581C123.351 50.4003 124.463 51.084 125.548 51.8079V51.8155C126.634 52.5405 127.693 53.3053 128.722 54.1082L133.391 48.1183C131.038 46.2835 128.554 44.624 125.958 43.1532L122.216 49.7581ZM134.514 59.3542C136.313 61.244 137.97 63.2638 139.472 65.3973L145.682 61.0244C143.959 58.595 142.061 56.2795 140.011 54.1158L134.514 59.3542ZM143.496 72.1085C144.08 73.2727 144.622 74.4578 145.12 75.6615C145.618 76.8667 146.071 78.0898 146.479 79.3283L153.691 76.9521C152.758 74.1184 151.616 71.3575 150.275 68.6921L143.496 72.1085ZM148.385 86.9126C148.829 89.4842 149.082 92.0852 149.144 94.6942H149.151L156.743 94.5044C156.667 91.5284 156.371 88.5524 155.863 85.6219L148.385 86.9126ZM148.764 102.499C148.605 103.797 148.4 105.08 148.149 106.37C147.891 107.653 147.588 108.921 147.238 110.174L154.557 112.201C155.355 109.325 155.938 106.394 156.303 103.432L148.764 102.499ZM144.612 117.538C143.549 119.922 142.319 122.23 140.922 124.431L147.337 128.493C148.931 125.973 150.336 123.346 151.551 120.613L144.612 117.538ZM111.432 75.5775H86.9295V90.1329C87.9535 88.7676 89.4652 87.6217 91.4644 86.6952C93.5124 85.7687 95.6823 85.3055 97.9741 85.3055C102.07 85.3055 105.386 86.1832 107.922 87.9386C110.506 89.694 112.334 91.9127 113.407 94.5946C114.529 97.2765 115.09 100.105 115.09 103.079C115.09 106.688 114.382 109.906 112.968 112.734C111.603 115.513 109.531 117.708 106.751 119.317C104.021 120.926 100.656 121.731 96.6575 121.731C91.3425 121.731 87.0758 120.414 83.8575 117.781C80.6393 115.148 78.7132 111.661 78.0792 107.321H86.1981C86.7345 109.613 87.9291 111.442 89.7821 112.807C91.6351 114.124 93.9512 114.782 96.7307 114.782C100.193 114.782 102.777 113.734 104.484 111.637C106.239 109.54 107.117 106.761 107.117 103.299C107.117 99.7878 106.239 97.1058 104.484 95.2529C102.728 93.3512 100.144 92.4003 96.7307 92.4003C94.3413 92.4003 92.3177 93.0098 90.6598 94.2289C89.0507 95.3992 87.8804 97.0083 87.149 99.0563H79.2495V68.2632H111.432V75.5775Z"
      fill="#181818" />
</svg>
